PathFileType	4	(X/Y/Z)	C:\Users\WrightLab\Desktop\Jo\P1.2Trial7.trc
DataRate	CameraRate	NumFrames	NumMarkers	Units	OrigDataRate	OrigDataStartFrame	OrigNumFrames
100.00	100.00	       68	19	mm	100.00	472	       539
Frame#	Time	Headset_Front			Headset_Back			Headset_Left			Headset_Right			Left_Shoulder			Right_Shoulder			Sternum			C7			Left Elbow			Right Elbow			Left Wrist			Right Wrist			Left ASIS			Right ASIS			S2			Left Knee			Right Knee			Left Ankle			Right Ankle			
		X1	Y1	Z1	X2	Y2	Z2	X3	Y3	Z3	X4	Y4	Z4	X5	Y5	Z5	X6	Y6	Z6	X7	Y7	Z7	X8	Y8	Z8	X9	Y9	Z9	X10	Y10	Z10	X11	Y11	Z11	X12	Y12	Z12	X13	Y13	Z13	X14	Y14	Z14	X15	Y15	Z15	X16	Y16	Z16	X17	Y17	Z17	X18	Y18	Z18	X19	Y19	Z19	

472	4.710													-219.92940	1304.00769	2360.17749																			-605.70190	826.76282	1866.32202										-457.99142	518.41321	2410.00073	-406.92767	468.14352	2064.75586	-489.51013	254.73068	2554.14575				
473	4.720													-229.40430	1303.41309	2369.87207																			-600.47522	824.21307	1867.47253										-469.42117	517.39716	2413.45532	-409.87613	468.64496	2066.32935	-503.03348	252.62494	2551.86304				
474	4.730													-238.95808	1302.80078	2379.83008																			-594.02405	819.87573	1869.07202										-480.85754	516.02167	2417.30981	-411.89893	468.13528	2071.82568	-515.41302	248.87560	2548.45923				
475	4.740													-248.61729	1302.09814	2389.53369																			-586.94794	816.99860	1867.71680													-414.39468	467.64780	2074.46802	-525.21857	242.40837	2546.17236				
476	4.750													-258.51932	1301.16663	2399.11377																			-579.42444	811.95142	1874.13794													-417.66577	469.17633	2073.05151	-532.89203	233.33760	2542.35864				
477	4.760													-268.79117	1300.68481	2409.04980																			-570.81104	809.51947	1873.55212													-420.29681	468.05328	2079.67432							
478	4.770																																		-562.29114	804.72089	1878.80701													-423.30194	468.33975	2081.04126							
479	4.780																																		-552.65082	800.87500	1880.89795													-427.55594	467.14709	2085.41187							
480	4.790																																		-542.67865	797.45776	1883.68347													-431.36703	468.42633	2088.98047							
481	4.800																																		-532.30969	795.62659	1883.55603													-434.64960	468.28500	2091.80493							
482	4.810																																		-521.30042	789.14728	1894.79822													-439.31577	469.00162	2093.64453							
483	4.820																																		-509.87503	788.41693	1898.00537													-443.32349	469.31787	2094.87280							
484	4.830																																		-497.68164	787.09534	1899.82886													-445.63663	468.18652	2103.86401							
485	4.840																																		-485.22369	785.69904	1905.73682													-449.73593	466.88135	2109.09082							
486	4.850																																		-472.27423	785.44360	1912.12927													-454.76166	468.32971	2113.12061							
487	4.860																																		-459.24658	785.41144	1920.04626													-459.86716	468.17279	2116.84668							
488	4.870																																		-445.86191	786.59973	1925.97351																						
489	4.880																																		-432.60297	787.94873	1935.69287																						
490	4.890																																		-419.31055	789.21619	1945.36096																						
491	4.900																																		-405.87173	792.22021	1950.51697																						
492	4.910																																		-392.53815	793.35187	1960.76685																						
493	4.920																																		-379.41849	795.95294	1969.88782																						
494	4.930																																		-366.84085	797.35168	1980.38452																						
495	4.940																																		-354.55496	798.51196	1991.25647																						
496	4.950																																		-343.36307	800.71533	1999.14294																						
497	4.960																																		-331.02521	802.92218	2004.77148																						
498	4.970																																		-323.36603	803.93793	2013.39758																						
499	4.980																																		-316.38708	805.67395	2022.28040																						
500	4.990																																		-309.83624	807.07104	2029.30164																						
501	5.000																																		-302.93512	807.77441	2037.57666																						
502	5.010																																		-297.02017	808.56995	2041.50476																						
503	5.020																																		-289.76999	809.42285	2048.45166																						
504	5.030																																		-283.38928	809.63330	2053.04077																						
505	5.040																																		-276.55878	810.73206	2059.89453																						
506	5.050																																		-269.56625	810.60919	2067.47876																						
507	5.060																																		-264.13535	811.78748	2072.29834																						
508	5.070																																		-258.44101	812.21307	2079.79883																						
509	5.080																																		-252.24597	813.10480	2089.07837																						
510	5.090																																		-247.72667	814.80389	2095.42432																						
511	5.100																																		-241.88232	814.65259	2104.05322																						
512	5.110																																		-237.07584	816.10480	2113.23462																						
513	5.120																																		-232.43712	817.34564	2121.26025																						
514	5.130																																		-227.77220	817.96484	2131.10449																						
515	5.140																																		-223.27013	819.23059	2140.78613																						
516	5.150																																		-219.28993	819.73248	2150.12598																						
517	5.160																																		-214.57144	819.96448	2161.24976																						
518	5.170																																		-211.31667	820.54437	2171.41748																						
519	5.180																																		-207.43826	820.68347	2180.68530																						
520	5.190																																		-203.65282	820.98773	2192.92407																						
521	5.200																																		-201.30685	820.85242	2201.71655																						
522	5.210																																		-197.53317	821.35248	2213.42114																						
523	5.220																																		-195.18951	820.32434	2221.20605																						
524	5.230																																		-191.39581	821.62384	2233.73779																						
525	5.240																																		-189.29391	820.90741	2241.07422																						
526	5.250																																		-185.99039	821.54224	2252.02808																						
527	5.260																																		-183.47334	820.85333	2261.50684																						
528	5.270																																		-180.49545	821.07953	2268.21899																						
529	5.280																																		-178.33295	820.60193	2275.27295																						
530	5.290																																		-175.01723	820.09875	2284.01514																						
531	5.300																																		-172.07251	820.33746	2291.02979																						
532	5.310																																		-168.68367	819.03345	2298.42554																						
533	5.320																																		-166.01453	818.97406	2305.65015																						
534	5.330																																		-163.29497	818.96735	2311.06958																						
535	5.340																																		-160.82434	818.54059	2318.08960																						
536	5.350																																		-157.77667	817.75287	2323.62280																						
537	5.360																																		-155.02650	817.71448	2330.49097																						
538	5.370																																		-151.94008	817.00909	2336.11694																						
539	5.380																																		-149.71982	817.63300	2342.77881																						
